<svg xmlns="http://www.w3.org/2000/svg" viewBox="0 0 1279.5 904.99"><path d="M851.8,3.1c-.8,2.9-1,3-7.4,3.4C824,7.9,805.1,23,794,47.1l-3.9,8.5-16,1.2a205.86,205.86,0,0,0-25.6,3.3c-7.4,1.7-14.3,2.4-31.5,2.9l-22,.6-11.5,4.2c-9.6,3.5-11.6,4.5-11.9,6.4-.1,1.3-3.4,5.5-7.1,9.4a147.33,147.33,0,0,0-11.1,13.3c-3.9,5.5-4.6,6.1-7.8,6.1a17.21,17.21,0,0,0-6.5,1.5c-3.5,1.8-7,1.9-8.4.2a22.87,22.87,0,0,1-2.3-5.7c-1.8-6-6.5-10.4-18.2-17l-9.7-5.4V70.8c0-5.1-.3-6-2.2-6.7a70.16,70.16,0,0,1-8.2-4.5c-8.4-5.1-11.9-4.9-25.4,1.3-12.8,5.9-16.9,7.1-24.5,7.1-6.8,0-11.2-1.6-17-6.3-8.4-6.9-10.4-7.1-17.7-2.2-5.9,4-6.1,4-10,2-2-1-3.3-2.9-4.4-6.3l-1.7-4.9-12.7-1.8c-15.2-2.2-16.9-2.2-22.2.5-3.8,1.9-4.7,2-9.8.9a41.66,41.66,0,0,1-9.2-2.9c-5.3-2.7-12.4-9.4-16-15-2.9-4.5-3.6-5-6.9-5-8.1.1-15.7,6-20.1,15.9-1.3,2.8-2.9,5.1-3.6,5.1s-2.6-1.2-4.3-2.6c-3-2.5-3.3-2.5-7.4-1.2-3.9,1.2-4.2,1.5-4.2,4.9,0,4.2-1.6,6.5-5.3,7.4s-5,2.2-6.2,6.4c-.7,2.7-2.3,4.6-6.6,7.6-11.4,8.1-16.8,12.6-19.3,16-2.2,3.2-2.9,3.6-6.5,3.3-3.3-.3-4.1-.7-4.6-2.8a3.61,3.61,0,0,0-2.5-2.8,10.72,10.72,0,0,1-4.2-2.4c-1.5-1.4-2.8-1.8-4.5-1.3-3.5,1.1-9.8,7.6-9.8,10.2s-.2,2.8-4.6.7c-8.4-4-15.5,1.2-22.6,16.6-2.7,5.8-5.7,11.3-6.6,12.4s-5.4,3.5-9.9,5.6c-7.1,3.3-8.6,4.5-11.2,8.7-3.7,5.8-4,10.9-1,16.3,1.5,2.6,2,4.7,1.5,6.4-.6,2.6-5,5.6-8.2,5.6a20.09,20.09,0,0,0-5.9,2c-5.9,2.8-8.2,7.6-10,20.3-.8,5.7-1.8,11.3-2.1,12.3-1,2.8-6.3,10.2-10.2,14.6-2.9,3.2-4.1,3.8-7.3,3.8-3.7,0-4.2.3-7.9,6.2s-3.8,6.3-2.4,9.7a23.84,23.84,0,0,0,2.5,4.7c1.9,2.3-2.4,7.6-8.9,10.8-3.1,1.6-3.3,2-3,6.4l.3,4.7-6.8,4.5-6.8,4.5.4,7a49.68,49.68,0,0,0,1.1,9c.6,1.8,0,2.5-4.4,4.5-5.6,2.6-9,6.1-9,9.1,0,1.5-.7,1.9-3.1,1.9-4.7,0-11.1,6.7-10.3,10.6,1,5.1-1,8.1-7.5,11.4l-6,3,3.6,7.6c2,4.2,3.2,7.9,2.7,8.3a27.63,27.63,0,0,1-6.6,2.1c-6.3,1.4-7.8,3.3-7.8,10,0,6.1-1.5,8.6-7.5,12.5-6.2,3.9-7.1,3.9-14.1-.1-4.5-2.7-8.1-3-13-1.2-2.7.9-3.8.9-5.9-.2-2.3-1.3-3.4-1.1-9.6,1-7.6,2.6-9.9,5.1-9.9,11a15,15,0,0,1-1.6,6.1c-2.7,5.3-15.4,9.4-15.4,5,0-3-3.6-6.7-7.8-7.9-5.5-1.7-10.2-1.5-10.2.3,0,3.5-2.3,6.5-5.1,6.5s-5.9-2.2-5.9-4.1c0-1.7-3.6-.9-10.7,2.5C.2,387.5-1,389.3.6,395.3c3.1,11.5,12,26.1,20.6,33.7,4.2,3.7,13.4,8.9,18.3,10.3.9.3,3.1,4.4,4.9,9.3,4.3,11.3,9.3,21.4,11.7,23.5a11.87,11.87,0,0,0,4,2.1c1.7.4,2.3-.1,3.3-2.8.7-1.9,1.8-3.4,2.5-3.4,1,0,.9,1.8-.5,8.2-2.7,12.3-2.7,12.4-5.5,15.7L57.3,495l1.9,3.3a18,18,0,0,0,5.1,5.2c2.2,1.4,3.1,2.8,3.2,4.7,0,2.5-.4,2.8-3.4,2.8s-3.4.4-4,3.1,0,3.6,4.7,8.2a55.18,55.18,0,0,1,9.1,12.4c3.1,5.9,4.8,7.8,9,10.4,8.2,5.2,9.6,6.7,8.5,9.5-.7,2.1-.5,2.6,1.9,3.6a32.49,32.49,0,0,1,5.1,3c2.6,2,8.1,2.4,9.8.7s5,.6,7.3,5a19.12,19.12,0,0,0,4.7,5.9c2.8,1.9,14.1,6.4,24.3,9.7,3,1,6.7,2.4,8.2,3.1l2.7,1.4-4.2,8.4c-3.8,7.7-4.5,8.6-8,9.6a19.3,19.3,0,0,0-7.4,4.7c-3.1,3-3.4,3.8-2.5,5.8,2.9,6.3,8,10,23.2,16.7l3.5,1.5-4,2c-4.3,2.2-19.4,6.3-23.2,6.3-4.9,0-1.8,9.8,5.9,18.3,3.9,4.4,4.8,4.9,10.4,5.7,8.4,1.1,9.8,2.1,14.8,9.9,4.3,6.6,9.7,12.1,11.9,12.1.7,0,5.2-.5,10.2-1,8.1-1,9.9-.8,18,1.2,11.4,2.8,14,5.2,17.9,16.3,3.1,8.7,5.2,12.2,10.7,17.5a24.18,24.18,0,0,1,4.1,4.9c.4,1.3.9,1.3,3.7.2,5.2-2.2,10.5-9.3,15.1-20,4.7-11.3,7-13.9,16.1-17.9,3.7-1.7,7.3-4,8.2-5.2a3.17,3.17,0,0,1,3.8-1.5c3.6.9,5.3,2.5,8.9,8.3,3.9,6.4,5.3,7.2,12.3,7.2,4.8,0,6,.4,9.8,3.6a76.37,76.37,0,0,0,6.3,4.9c2,1.5,2,1.5-.4,4-3.1,3.3-6.1,3.2-12.7-.6l-5.4-3.1-3.2,3.2c-1.8,1.8-7.6,5.4-12.9,7.9l-9.7,4.6,6.8,16.5c9.3,22.8,8.9,22.3,17.7,24.9,4.9,1.4,7.4,2.7,7.7,3.9.3.9,1.1,4.1,1.7,7.1,1.2,5,1.6,5.6,7.3,9.2a72.51,72.51,0,0,0,10.9,5.7c4.7,1.6,4.8,1.8,4.8,5.8v4l11.5,2.9c10.6,2.6,11.5,3,10.9,4.9-1.6,5.6-7.9,10.9-15.1,12.8-3.6.9-4.3,1.4-4.3,3.4s-.4,2.3-2.4,1.8c-2.2-.5-2.7,0-5.1,4.9-3.1,6.7-2.8,8.6,2.6,17.8l4,6.6,11.2,2.8c15.9,3.9,26.4,3.8,37.2-.3,18.1-7,22.9-6.8,38.1,1.3l10.3,5.5h30l2.9,3.5c3.4,4.1,7.3,5.5,16,5.5,8.3,0,11.7,1.6,17.7,8.3,4.1,4.4,6.2,5.8,10.5,7.1,13.6,4,34.7-.9,45.6-10.6,2.2-1.9,4.4-3.4,4.9-3.2s3.1.5,5.7.9c3.3.4,7.1,2.2,12.5,5.7,13.8,9,18.3,9.6,33.7,4.4,5.6-1.9,11.5-3.7,13.1-4,4.5-.9,9,.8,14.2,5.4l4.7,4.1,9.5-.6c5.3-.3,10.7-.8,12-1.1,1.9-.4,3.7.9,9.5,7,10.2,10.7,12.4,10.9,35.3,3.4,12.6-4.1,13.2-4.4,13.3-7,0-4.5,2-5.4,12.7-6.1,5.4-.4,9.9-1,10.1-1.4,1.2-3.9,4.9-7.6,10.3-10.4,6.7-3.6,8.9-6.9,8.9-13.2,0-3.9,1.6-5.6,8.2-8.7,4-1.9,5.6-3.6,11-12l6.3-9.8,5.5-.7a67.68,67.68,0,0,0,11.9-3.1,36.41,36.41,0,0,1,13.8-2.4c8.4,0,42.6-6,51-9,3-1,9.3-4.5,14-7.6,12.2-8.1,14.4-8.7,28.8-8,6.6.3,13.6,1,15.5,1.5a92.18,92.18,0,0,0,9.3,1.6c4.5.5,6.7,1.4,10,4.1a50.74,50.74,0,0,0,7.9,5.2c3.1,1.4,3.9,2.4,4.6,5.7l.8,4h15.4c14.1,0,15.8-.2,19.1-2.1l3.7-2.2,3.9,2.3c2.1,1.3,6,5.1,8.7,8.4l4.8,5.9,4.1-1.3a91.31,91.31,0,0,0,10-3.9c3.2-1.4,6.4-2.6,7.1-2.6s1.5,1.8,1.9,4.9c.8,7,4.2,14.2,8.5,18.4,5.1,5,12.5,8.4,34.7,15.8,18.3,6.1,19.4,6.3,29,6.3,11.5,0,19.9-1.4,22.3-3.8,1.3-1.3,1.8-4.5,2.3-15.1l.6-13.4,4.7-8.2c6-10.3,6.5-13.1,3.4-19.5-1.4-2.7-3.3-9.4-4.2-14.9l-1.8-10,3.1-2.6c1.7-1.4,3.1-3.2,3.1-3.9s-1.9-5.2-4.2-9.9l-4.2-8.5,4.7-9a178.07,178.07,0,0,1,24.8-34.9l7.2-7.9-2.9-5.4c-2.4-4.4-3.3-5.3-4.9-4.8-4,1.3-7.5,3.5-8.6,5.5-.6,1.1-1.3,1.8-1.6,1.5-1.3-1.3,4.8-8.4,9.1-10.6l4.7-2.5,2,2.4,1.9,2.3,2.6-2.3c5.3-4.8,7-6.8,9.4-11.6,4-7.8,6.9-11.3,9.3-11.3,1.4,0,4.1-1.8,6.7-4.5,5.2-5.3,8.7-6.1,20.8-4.6,8.1,1,8.4,1,20.5-2.8,6.7-2.1,13.6-4.2,15.4-4.5a4.82,4.82,0,0,0,4.1-3.6c.7-1.8,1.9-3,3.4-3.2,2.2-.3,2.3-.8,2.9-9.8.4-5.2,1.2-12.4,1.9-15.8,1-5.8.8-16.9-.6-25.8-.3-2.4.3-4,3.1-7.5,1.9-2.4,3.5-4.8,3.5-5.2s-1.7-1.5-3.7-2.4a39.57,39.57,0,0,1-4-1.7c-.2-.1.4-3.4,1.2-7.2,2.6-12.2,2.2-14.5-3.9-22.7-10.6-14.3-14.3-16.5-30.1-17.6-7-.5-11.1-1.3-12.9-2.5-2.5-1.6-2.9-1.5-10.1,1.5-14.2,5.9-30.6,17-40.3,27.3-2.9,3.1-5.7,5.6-6.1,5.6-1.5,0-8.9-6.4-12.1-10.4-2.5-3.3-3.6-3.9-6.7-3.9-3.3,0-3.8.3-4.9,3.4-1.7,4.7-1.7,7.4.1,8.9,2.1,1.7,1.9,4-.4,4s-3.5,4.8-1.8,6.9c1,1.2.4,1.3-4.3.8-13.1-1.6-30.4-7.7-44.6-15.8-7.9-4.5-8.9-6.3-5.9-10.6,1.3-1.9,1.2-2.4-.8-5.4-1.4-2.1-4.6-4.6-8.2-6.4l-6-3-.3-5.8c-.3-5.5-.6-6.1-4.9-10.3a31.94,31.94,0,0,0-6.5-5c-1-.3-1.8-.9-1.8-1.3,0-1.6,4.3-6.2,7.2-7.7l3-1.6-.7-7.6c-1-11.5-2.8-20-8-37.7-6.4-22.3-6.4-22.2-2.1-33.5l3.7-9.4-.7-13.5-.6-13.6,4.1-5.4c3.8-5,4.1-5.7,4.1-11.8s.3-6.8,3.5-10.4c4.5-5.1,4.7-9.6.5-17.9-3.6-7.2-3.7-9.8-.5-18.4,4.4-11.6,3.2-16.2-5.8-23.3-2.4-1.8-3-3.3-3.8-9-.7-5.1-1.7-7.7-3.9-10.5-2.8-3.5-3-4.2-3-12.6,0-9.6.3-8.7-9-25.8l-3.4-6.1-8-2.4c-7.2-2.1-8.1-2.7-8.4-5-.2-1.8-1.2-2.9-3.5-3.7-1.8-.7-5.7-3.7-8.8-6.7-5.3-5.1-5.6-5.7-6.2-11.2a40.66,40.66,0,0,0-4.1-13.3c-2-4.1-3.6-8.2-3.6-9,0-1.1-1.8-2-6.2-2.9-11.4-2.5-11.7-2.8-13.4-14.1-.9-6.6-2.7-10.3-7.5-15.4-3-3.4-4.9-4.6-7-4.6-2.5,0-2.9-.5-4.3-5.4a37.46,37.46,0,0,1-1.6-7.9c0-2-1.4-3.5-6.3-7-11.7-8.3-16.7-15.8-13.3-19.6,2.5-2.7,2-5.8-1.3-7.7s-5.3-7.9-8.7-25.6c-.9-4.8-2.5-10.1-3.5-11.7s-5.6-6.1-10.2-10-8.8-7.9-9.2-9-.1-3.8.4-6.2.7-4.8.3-5.3c-2.8-4.8-15.8-20.6-17.2-21.1a8.3,8.3,0,0,0-4.5.5c-2.4.9-3,.7-5.4-2.1C874.6.1,873.3-.5,866.5,3c-5,2.5-5.5,2.5-9.4-.5A17.4,17.4,0,0,0,853.2,0C852.8,0,852.2,1.4,851.8,3.1ZM861.7,7A11.76,11.76,0,0,0,866,5a13.32,13.32,0,0,1,6.2-2c2.7,0,3.8.9,7.6,5.7,4.4,5.8,4.4,5.8,9.3,5.5l5-.2,7.4,10.1,7.5,10V47.4l8.9,7.7c4.9,4.2,9.5,8.8,10.2,10.1s2.4,7.8,3.9,14.3c3.6,16.6,5.2,21.1,8.1,22.9,2.7,1.9,3.1,4.7.9,6.6a4.57,4.57,0,0,0-1.5,3c0,3.4,6.3,11.1,13.5,16.3,6.1,4.3,7.4,5.8,7.9,8.7.3,1.9,1.2,5.7,1.9,8.5,1.3,4.6,1.7,5,4.8,5.5,2.4.4,4.7,1.8,7.6,5,4.2,4.6,5.6,8.3,6.8,17.8.8,6.3,3.2,8.5,10.6,10.1,5.9,1.3,8.9,2.7,8.9,4.3,0,.6,1.6,4.5,3.5,8.8,2.4,5.4,3.5,9.2,3.5,12.5,0,4.6.3,5.1,6.1,10.7,3.3,3.3,7.6,6.6,9.5,7.4,2.5,1.1,3.4,2,3.4,3.8,0,2.1,1,2.7,8.3,5l8.2,2.6,5.7,10.2,5.8,10.3v9.7c0,9.4.1,9.7,3.4,13.6,2.7,3.3,3.5,5.3,4,10.4.7,6,1,6.5,6.2,11.3,5,4.7,5.4,5.4,5.4,9.6A36.48,36.48,0,0,1,1072,325c-3.2,8.3-3.2,10.8.6,18.3,1.8,3.5,3.2,7.9,3.3,10.1.1,3.3-.5,4.3-3.7,7-3.6,3-3.7,3.2-3.7,10.1,0,6.7-.2,7.3-4.1,12.4l-4,5.4.7,14.1c.6,13.2.5,14.4-1.6,19.1a62.49,62.49,0,0,0-3.5,10.3c-1.5,6-1,9,5.6,31.2,4.1,13.9,6.9,28.4,6.9,35.6,0,3.4-.5,4.5-2.7,6a16.48,16.48,0,0,0-6.5,7.6c-.5,1.2-.1,2.1,1.4,2.9a49,49,0,0,1,6.4,5.1c4,3.7,4.4,4.5,4.4,8.8,0,7,.6,7.9,7.6,11,3.4,1.6,7,3.9,7.8,5.3,1.5,2.2,1.5,2.7.1,5.3-2.9,5.6-2.3,6.5,8.8,12.6,15.8,8.7,30.3,13.6,44.5,15.3,5.2.6,6.2.5,6.2-.8a2.58,2.58,0,0,0-1-2.2c-1.9-1.2-1-4.5,1.4-5.4,3.2-1.3,4-3.8,1.6-5.3-2.2-1.4-2.5-4.3-1-8.2,1.6-4.2,5-3.4,9.9,2.4a45.56,45.56,0,0,0,8.6,7.6l4.4,2.5,7.8-7.8c9-9.1,20.7-17.2,34.6-23.9,9.6-4.6,9.9-4.7,12.6-3.1,1.7,1,6.9,2,13.7,2.5,15.7,1.4,18.3,2.9,28.7,17,4.3,5.7,4.7,6.7,4.7,12A53,53,0,0,1,1271,577c-.8,3-1.5,5.8-1.5,6.1s1.9,1.3,4.1,2.2l4.2,1.6-2.9,3.8c-2.9,3.8-2.9,3.8-2.9,18.8,0,8.2-.7,20.5-1.4,27.2-1.4,11.1-1.7,12.3-3.8,13.2a6.84,6.84,0,0,0-3.2,3.5c-.7,1.6-2,2.6-4.5,3-1.9.4-8.5,2.3-14.7,4.2-10.9,3.5-11.4,3.5-20.1,2.6-11.4-1.2-15-.4-20.2,4.7-2.8,2.7-5.1,4.1-6.8,4.1-3,0-4.9,2.3-9.6,11.6-3,5.9-8.1,11.4-10.6,11.4a4.08,4.08,0,0,1-2.3-1.1c-3.7-3.7-15.1,5.3-17.7,13.8-1.1,3.5,1.8,2.9,5.6-1.1,5-5.2,6.9-5.3,9.6-.6l2.2,3.9-8.6,10.3c-10.3,12.3-20.1,26.8-24.5,36.1l-3.2,6.9,4.2,7.8c2.2,4.2,4.1,8.5,4.1,9.3s-1.1,2.4-2.5,3.3c-1.9,1.2-2.5,2.5-2.5,5.3.1,6.3,2.9,19.9,5,23.8,3,5.7,2.6,8.9-2.6,17.6-5,8.3-6.3,14.2-6.4,28.1,0,7.7-1.6,10.6-5.7,10.6a35.26,35.26,0,0,0-7.5,1.7c-4.4,1.4-6.3,1.5-13,.5-9.4-1.4-43-12.2-51.1-16.5-9.8-5.1-14.5-12.4-16.2-25-.4-3.2-1.1-4.7-2.1-4.7s-5.2,1.5-9.7,3.4c-12.3,5.2-11.5,5.2-16.9-1.4-2.7-3.3-6.8-7.1-9.3-8.5-4-2.4-4.6-2.5-6-1.1a16.28,16.28,0,0,1-5.3,2.6c-5.4,1.5-19.2,2.4-24.5,1.6-4.5-.7-4.7-.9-5.3-4.6-.5-3.3-1.1-4-3.6-4.5-1.6-.4-5.2-2.7-7.9-5-3.3-3-6.1-4.6-8.6-5-2.1-.3-7.4-1.2-11.8-2-23.6-4.2-31.7-3.2-45.7,5.9-5.4,3.6-12.6,7.4-16.1,8.5-9.9,3.2-38.7,8.1-48,8.1-6.6,0-9.6.5-14.5,2.5a66.78,66.78,0,0,1-12.3,3.4c-3.5.4-6.5,1.4-7,2.2s-3.4,5.2-6.6,9.9c-4.9,7.2-6.6,8.9-11.2,11.1-6.1,2.9-8,5.6-8.1,11.5,0,4.7-2.3,7.3-9.8,11.4a21.57,21.57,0,0,0-6.7,5.7c-2.3,3.8-2.9,4-14.7,4.8-9.2.7-8.8.5-10.2,6.6-.4,2-1.4,2.8-4.8,3.6-2.4.6-8.1,2.5-12.8,4.2-9.4,3.4-17.4,4-21.8,1.7-1.5-.8-5.1-4.2-8.1-7.6l-5.4-6.3-12.4.8-12.4.7-4-3.7c-7.5-6.7-12.9-7.1-27.5-2-15.5,5.4-22.2,4.7-34-3.8-5.4-3.9-12.8-6.7-17.5-6.7-2.1,0-4.5,1.3-7.7,3.9A50.61,50.61,0,0,1,521.6,888c-11.5,0-14.6-1.2-22.2-8.7-7.4-7.2-10-8.2-21.3-8.3-6.7,0-7-.1-10.7-4l-3.8-4H434.4l-11.9-6.2c-11.3-5.9-12.3-6.2-18.7-6.2-5.1.1-9.1.9-15.8,3.4-16.6,6-25.6,6.2-44.6,1l-7.6-2.1-3.7-7.2c-4.2-8.3-4.3-8.9-1.6-14.5,1.8-3.8,2.3-4.1,5-3.5s3,.3,3-2.5c0-2.6.4-3.1,3.3-3.6a20.68,20.68,0,0,0,16.1-15.9c.6-2.5.4-2.7-2.3-2.7a48.21,48.21,0,0,1-9.2-1.9c-3.5-1-7.6-2.2-9.1-2.5-2.3-.5-2.7-1.2-3-4.8s-.7-4.3-2.9-4.9c-4.3-1.1-13.2-5.9-16-8.5-1.8-1.8-3-4.4-3.8-8.4-.6-3.2-1.8-6.3-2.6-7s-4.2-1.9-7.6-2.8c-7.6-2-7.6-2-16.5-23.8-5.6-13.6-6.1-15.6-4.6-16.1,5.6-1.8,18.1-8.5,20.1-10.7l2.4-2.6,4.2,2.4a31.22,31.22,0,0,0,7.6,3.1c3,.6,4,.2,6.7-2.3,1.8-1.7,3.2-3.4,3.2-3.9s-3-3.4-6.6-6.3c-6.1-5-7.1-5.4-12.8-5.8-6.9-.5-8.4-1.5-12.2-7.9a14,14,0,0,0-7.1-6.5l-4.6-2-2.1,2.6c-1.1,1.4-5.5,4.1-9.7,6-8.9,4-9.9,5.3-16,19.1-4.3,9.8-11,18.6-14.1,18.4-.7,0-3.8-2.9-6.9-6.3-4.3-4.8-6.2-7.9-7.9-13.2-3.1-9.5-5.6-14.1-8.6-16-5.2-3.5-13.4-4.9-28-4.9-16.2,0-15.6.2-22-9.5a57.44,57.44,0,0,0-6-8.1c-2.6-2.2-8-3.9-12.4-3.9-3.2,0-4.3-.6-7.3-4.4-5.2-6.3-7.9-11.2-7.5-13.7.3-1.9,1.5-2.4,9.3-4,8.6-1.8,19.5-6.3,20.2-8.4.2-.6-3.1-2.3-7.3-3.9-9.3-3.6-15.6-7.7-18.3-11.8-2-3.2-2-3.2.1-6,2.2-3.1,6.6-5.8,9.7-5.8,1.4,0,2.3-1.1,3.2-3.8a46.41,46.41,0,0,1,3.6-7.5,49.18,49.18,0,0,0,3.3-6.2c1.2-3.1,1.2-3.1-17-9.5-16.3-5.7-20.3-7.9-22-11.9-2-5-8.9-9.7-10.5-7.1-1,1.6-4.4,1.2-9.6-1.2-3.9-1.9-4.7-2.7-4.2-4.3.3-1.1.6-2.4.7-2.9s-3.3-3.2-7.4-6c-6.4-4.4-8-6.1-11.5-12.3a65.09,65.09,0,0,0-8.9-12.2c-5.6-5.7-5.7-8.1-.1-8.1,3.4,0,3.5-.1,3.5-3.9,0-3.4-.5-4.2-3.4-6a18.74,18.74,0,0,1-5-4.6c-1.6-2.4-1.5-2.7.9-6.3,1.5-2.2,3.3-7.6,4.5-13.2,1.1-5.2,2.3-10.3,2.6-11.3.5-1.5.1-1.8-2.2-1.5-2.6.3-3.3,1.1-6.1,6.6-.1.2-1.1-.1-2.2-.8-2.5-1.3-8.4-12.7-13.1-25.1l-3.2-8.6-5.4-1.7c-11-3.5-22.7-15.2-29.9-30.1-4.5-9.2-6.1-15.1-4.8-17.1.9-1.3,12.7-7.4,14.4-7.4.6,0,1.9,1,2.8,2.1,1.2,1.5,3,2.2,5.7,2.3,3.6.1,4.1-.2,5.9-3.9,2.2-4.3,2.7-4.4,9.8-2.3,3.8,1.2,6.7,4.8,6.7,8.4,0,1.4.7,1.5,4.7.9C61.4,388.1,66,384,67,376.2c1.1-7.5,1.3-7.8,7.1-10.1,6.2-2.3,9.9-2.7,11-1,.7,1.2,4.4.8,9-1.2,2.9-1.1,3.7-1,10.2,2.4,3.9,2,7.6,3.7,8.2,3.7,1.4,0,5.8-3.2,10.5-7.6,2.6-2.3,3.5-4.1,4-8,1.1-9,1.2-9.1,6.2-10.8a27.72,27.72,0,0,1,7-1.6c2,0,2.3-.4,1.7-2.8a62.25,62.25,0,0,0-3.2-8.5c-1.4-3.1-2.3-5.9-2.1-6s2.5-1.6,5.1-3.1c5.7-3.2,7.2-5.6,6.9-11.2-.1-3.5.4-4.6,2.8-6.7a18.52,18.52,0,0,1,7-3.1c3.1-.5,4.1-1.1,4.1-2.5,0-3.7,1.3-5.2,6.4-7.8a42.71,42.71,0,0,0,6.9-4.1c1.6-1.4,1.6-1.7.1-3.3-1-1.1-1.8-4.3-2.1-8.1l-.5-6.3,4.1-2.3a50.8,50.8,0,0,0,7.7-5.4c3.2-2.8,3.5-3.5,2.9-6.8-.6-3.5-.4-3.7,4.8-7.3,7.4-5.1,8.3-7.4,5.1-13.2l-2.6-4.5,3.2-5.3c3.8-6.1,4.5-6.7,8.6-6.7,6.6,0,16.9-14.3,18.6-25.7,3-20.3,5.2-24.4,14.4-26.3,6.7-1.4,10.1-4.1,11-8.6.5-2.7.2-4-1.3-5.7a13.22,13.22,0,0,1-2.6-6c-.5-3.1,0-4.7,2.5-8.9,2.7-4.3,4.1-5.4,10.7-8.4,4.2-1.9,8.7-4.5,10-5.7s4.7-7.2,7.6-13.2c5.6-11.9,7.3-14,13.2-16,3.1-1.1,4.2-1.1,5.8-.1a16.42,16.42,0,0,0,4.7,1.8c2.5.5,2.8.2,2.8-2.2,0-2,1.2-3.8,4-6.4,4.6-4.1,6.2-4.4,9.7-1.6a9.48,9.48,0,0,0,3.9,2c.8,0,1.4,1.1,1.4,2.5,0,2.3.3,2.5,5.2,2.5s5.4-.2,9.7-5c2.5-2.8,8.9-8.1,14.1-11.8,8.2-5.8,9.6-7.2,10.6-10.7s1.7-4.2,5-5.3c4.8-1.6,6.4-3.6,6.4-7.9,0-2.2.6-3.6,1.9-4.3,2.5-1.3,6.1-1.3,6.1,0,0,1.1,2.5,2.5,6.1,3.3,2.3.6,2.7.2,4.9-5,3.4-8.1,9.3-13.8,16-15.2a36.94,36.94,0,0,1,5.5-.9c.1.2,1.6,2.4,3.3,4.9,4.4,6.6,13.2,14.3,18.3,16.1,10.8,3.7,13,3.9,19.1,1.1l5.6-2.5,9.9,1.6c5.4.9,11.3,1.7,13.2,1.8,2.9.3,3.6.8,5,4.4,2.2,5.7,3.7,7.2,8.3,8.5,3.8,1,4.2.9,7.2-2,3.7-3.6,8.4-4.8,11.7-3a68.86,68.86,0,0,1,7.4,5c11.1,8.3,21.6,7.8,41.9-1.9,12.5-6,16.1-6.1,23.7-1.1a76.48,76.48,0,0,0,7.2,4.2c1.3.5,1.7,1.8,1.7,6.4v5.8l9.1,5c12.8,7,17.5,11.3,19.4,18,1.4,4.7,2.1,5.5,5,6.5,2.7.9,4,.8,6.4-.4a17.16,17.16,0,0,1,7-1.6c3.9,0,4.3-.3,9.7-7.8,3.2-4.2,8.6-10.5,12-14s6.4-7.1,6.6-8.2c.2-1.6,2.8-2.9,11.8-6L697,65h18.9c13.9,0,20.4-.4,24.9-1.6,11.2-2.9,22.1-4.4,36.4-5.1l14.1-.6,2.1-5.4c5.6-14.6,20.3-32.5,31.7-38.5a50.84,50.84,0,0,1,22-5.8c5,0,5.2-.1,5.8-3.1l.6-3.1,3.4,2.6C858.8,5.8,861,7,861.7,7Z"/></svg>
